<?xml version="1.0" encoding="UTF-8"?>
<svg height="0" style="display:none;" width="0" xmlns="http://www.w3.org/2000/svg">
  <symbol id="icon-apple" viewBox="0 0 24 24">
    <path d="M17.05 20.28c-.98.95-2.05.8-3.08.35-1.09-.46-2.09-.48-3.24 0-1.44.62-2.2.44-3.06-.35C2.79 15.25 3.51 7.59 9.05 7.31c1.35.07 2.29.74 3.08.8 1.18-.23 2.31-.94 3.69-.8 1.45.18 2.55.71 3.29 1.71-3.05 1.78-2.22 5.5.92 6.58-.67 1.74-1.5 3.46-2.98 4.68zM12.03 7.25c-.15-2.23 1.66-4.07 3.74-4.25.32 2.32-1.89 4.29-3.74 4.25z"/>
  </symbol>
  <symbol id="icon-logo" viewBox="0 0 24 24" xmlns="http://www.w3.org/2000/svg">
    <path d="M12 2L4 7L12 12L20 7L12 2Z"/>
    <path d="M4 12L12 17L20 12"/>
  </symbol>
  <symbol id="icon-visibility-off" viewBox="0 0 24 24" xmlns="http://www.w3.org/2000/svg">
    <path d="M12 7c2.76 0 5 2.24 5 5 0 .65-.13 1.26-.36 1.83l2.92 2.92c1.51-1.26 2.7-2.89 3.43-4.75-1.73-4.39-6-7.5-11-7.5-1.4 0-2.74.25-3.98.7l2.16 2.16C10.74 7.13 11.35 7 12 7zM2 4.27l2.28 2.28.46.46C3.08 8.3 1.78 10.02 1 12c1.73 4.39 6 7.5 11 7.5 1.55 0 3.03-.3 4.38-.84l.42.42L19.73 22 21 20.73 3.27 3 2 4.27zM7.53 9.8l1.55 1.55c-.05.21-.08.43-.08.65 0 1.66 1.34 3 3 3 .22 0 .44-.03.65-.08l1.55 1.55c-.67.33-1.41.53-2.2.53-2.76 0-5-2.24-5-5 0-.79.2-1.53.53-2.2zm4.31-.78l3.15 3.15.02-.16c0-1.66-1.34-3-3-3l-.17.01z"/>
  </symbol>
  <symbol id="icon-visibility" viewBox="0 0 24 24" xmlns="http://www.w3.org/2000/svg">
    <path d="M12 4.5C7 4.5 2.73 7.61 1 12c1.73 4.39 6 7.5 11 7.5s9.27-3.11 11-7.5c-1.73-4.39-6-7.5-11-7.5zM12 17c-2.76 0-5-2.24-5-5s2.24-5 5-5 5 2.24 5 5-2.24 5-5 5zm0-8c-1.66 0-3 1.34-3 3s1.34 3 3 3 3-1.34 3-3-1.34-3-3-3z"/>
  </symbol>
</svg>